<svg xmlns="http://www.w3.org/2000/svg" width="29.557" height="21.207" viewBox="0 0 29.557 21.207"><g transform="translate(-68.723 -453.585)"><g transform="translate(68.723 453.585)"><path d="M97.707,455.349H95.759v-.665a.573.573,0,0,0-.412-.573,16.149,16.149,0,0,0-4.131-.527,10.655,10.655,0,0,0-7.723,2.865,10.543,10.543,0,0,0-7.723-2.865,16.149,16.149,0,0,0-4.131.527.573.573,0,0,0-.412.573v.659H69.3a.573.573,0,0,0-.573.573v18.3a.571.571,0,0,0,.854.5,20.2,20.2,0,0,1,13.785-1.146H83.5a.576.576,0,0,0,.138,0,19.858,19.858,0,0,1,13.785,1.146.573.573,0,0,0,.859-.493v-18.3A.573.573,0,0,0,97.707,455.349ZM69.869,473.305V456.5h1.369v14.369a.573.573,0,0,0,.566.579.567.567,0,0,0,.093-.006,25.057,25.057,0,0,1,3.581-.286,14.863,14.863,0,0,1,4.893.739A21.062,21.062,0,0,0,69.869,473.305Zm5.609-3.294a25.211,25.211,0,0,0-3.117.2V455.138a15.789,15.789,0,0,1,3.4-.378,9.354,9.354,0,0,1,7.15,2.807l.017,14.272A13.392,13.392,0,0,0,75.478,470.011Zm8.594-12.444a9.44,9.44,0,0,1,7.15-2.807,15.871,15.871,0,0,1,3.4.378v15.074a25.222,25.222,0,0,0-3.1-.206,13.5,13.5,0,0,0-7.448,1.828Zm13.057,15.738A21.065,21.065,0,0,0,86.6,471.89a14.9,14.9,0,0,1,4.916-.739,25.06,25.06,0,0,1,3.6.281.573.573,0,0,0,.652-.48.59.59,0,0,0,.007-.093V456.5h1.369Z" transform="translate(-68.723 -453.585)" fill="#05507a"/></g></g></svg>