<svg xmlns="http://www.w3.org/2000/svg" width="25.659" height="23.834" viewBox="0 0 25.659 23.834"><g transform="translate(-160.937 -236.374)"><path d="M184.546,236.574H162.987a1.852,1.852,0,0,0-1.85,1.85V254.7a1.852,1.852,0,0,0,1.85,1.85h7.9l-.446,1.559a1.71,1.71,0,0,1-1.531,1.155H166.12a.37.37,0,1,0,0,.74h15.294a.37.37,0,1,0,0-.74h-2.787a1.71,1.71,0,0,1-1.531-1.155l-.446-1.559h7.9a1.852,1.852,0,0,0,1.85-1.85V238.424A1.852,1.852,0,0,0,184.546,236.574Zm-21.559.74h21.559a1.111,1.111,0,0,1,1.11,1.11v12.95H161.877v-12.95A1.111,1.111,0,0,1,162.987,237.314Zm13.4,21a2.262,2.262,0,0,0,.567.951h-6.37a2.258,2.258,0,0,0,.568-.951l.5-1.762h4.227Zm8.162-2.5H162.987a1.111,1.111,0,0,1-1.11-1.11v-2.59h23.779v2.59A1.111,1.111,0,0,1,184.546,255.815Z" fill="#05507a" stroke="#0d5178" stroke-width="0.4"/><path d="M164.29,251.937h21.559a.37.37,0,0,0,.37-.37V239.727a.37.37,0,0,0-.37-.37H164.29a.37.37,0,0,0-.37.37v5.18a.37.37,0,1,0,.74,0V240.1h20.82v11.1H164.66v-4.81a.37.37,0,1,0-.74,0v5.18A.37.37,0,0,0,164.29,251.937Z" transform="translate(-1.303 -1.303)" fill="#05507a" stroke="#0d5178" stroke-width="0.4"/></g></svg>