<svg xmlns="http://www.w3.org/2000/svg" width="24.406" height="24.401" viewBox="0 0 24.406 24.401"><g transform="translate(0.204 0.178)"><g transform="translate(0 0.022)"><path d="M11.987.022A12.019,12.019,0,0,0,10.7.091,11.328,11.328,0,0,0,9.537.277L9.316.326A12,12,0,0,0,3.4,3.64q-.225.231-.441.475A12.015,12.015,0,0,0,20.58,20.433q.226-.231.441-.475A12.014,12.014,0,0,0,11.987.022ZM3.929,4.241c.063-.066.129-.129.193-.192s.149-.147.225-.218.136-.123.2-.183.154-.137.233-.2.141-.115.213-.172.16-.128.243-.19.147-.108.221-.16.166-.12.251-.175.152-.1.229-.15.172-.109.259-.16.157-.093.236-.138.178-.1.267-.148l.24-.125c.091-.046.183-.091.276-.134s.163-.076.246-.112l.285-.12c.083-.034.165-.067.249-.1s.2-.071.293-.106.167-.058.252-.086.2-.062.3-.091c.085-.024.168-.05.253-.072l.1-.024a9.937,9.937,0,0,0-2.56,4.156A13.452,13.452,0,0,1,3.893,4.281Zm-.576.645A13.915,13.915,0,0,0,6.393,6.1a20.782,20.782,0,0,0-.809,5.541H.782A11.19,11.19,0,0,1,3.353,4.886Zm0,14.3a11.191,11.191,0,0,1-2.571-6.75h4.8a20.78,20.78,0,0,0,.809,5.541A13.924,13.924,0,0,0,3.353,19.188ZM9.1,22.871c-.081-.02-.165-.047-.248-.071-.1-.03-.2-.059-.3-.092-.085-.027-.168-.056-.251-.086-.1-.034-.2-.069-.294-.106s-.165-.065-.248-.1l-.286-.12q-.123-.054-.244-.111c-.093-.044-.186-.089-.28-.135s-.16-.08-.24-.124-.18-.1-.27-.149-.156-.09-.233-.137-.175-.107-.261-.163-.152-.1-.227-.148-.17-.118-.254-.178-.147-.1-.219-.16-.164-.127-.245-.192-.141-.113-.211-.171-.157-.136-.235-.2-.137-.12-.2-.182-.151-.145-.225-.219-.13-.127-.193-.192l-.034-.037a13.442,13.442,0,0,1,2.744-1.057A9.94,9.94,0,0,0,9.2,22.895Zm2.489.348c-1.714-.244-3.216-2.032-4.161-4.673a20.353,20.353,0,0,1,4.161-.49v5.163Zm0-5.964a21.091,21.091,0,0,0-4.413.526,20.035,20.035,0,0,1-.789-5.344h5.2v4.818Zm0-5.619h-5.2a20.031,20.031,0,0,1,.789-5.344,21.1,21.1,0,0,0,4.413.526Zm0-5.619a20.331,20.331,0,0,1-4.161-.49C8.37,2.887,9.873,1.1,11.586.855V6.018ZM20.62,4.886a11.191,11.191,0,0,1,2.571,6.75h-4.8A20.781,20.781,0,0,0,17.581,6.1,13.929,13.929,0,0,0,20.62,4.886ZM14.873,1.2c.084.021.168.047.251.072.1.03.2.059.3.092.085.027.168.056.251.086.1.034.2.069.294.106s.165.065.248.1l.286.12q.123.054.244.111c.093.044.186.089.28.135s.16.08.24.124.18.1.27.149.156.09.233.137.175.107.261.163.152.1.227.148.169.117.253.177.147.105.219.16.163.127.245.191.141.112.211.171.157.136.235.2.137.12.2.182.151.145.225.219.13.127.193.192l.034.037a13.442,13.442,0,0,1-2.744,1.057,9.939,9.939,0,0,0-2.563-4.156ZM12.387.855C14.1,1.1,15.6,2.887,16.549,5.528a20.353,20.353,0,0,1-4.161.49V.855Zm0,5.964A21.091,21.091,0,0,0,16.8,6.293a20.035,20.035,0,0,1,.789,5.344h-5.2Zm0,5.619h5.2a20.031,20.031,0,0,1-.789,5.344h0a21.1,21.1,0,0,0-4.413-.526Zm0,10.782V18.056a20.332,20.332,0,0,1,4.161.49C15.6,21.187,14.1,22.976,12.387,23.219Zm7.657-3.387c-.063.065-.129.128-.193.192s-.149.147-.225.219-.135.12-.2.182-.155.138-.234.2-.141.115-.213.172-.16.128-.243.19-.147.108-.221.16-.166.12-.251.175-.152.1-.229.15-.172.109-.259.16l-.235.138q-.133.076-.268.148l-.24.125c-.091.046-.183.091-.276.134s-.163.076-.246.112l-.285.12c-.083.034-.165.067-.249.1s-.2.072-.294.106c-.083.029-.167.058-.251.086-.1.032-.2.062-.3.091-.084.025-.168.05-.252.072l-.1.024a9.937,9.937,0,0,0,2.56-4.156,13.452,13.452,0,0,1,2.744,1.056C20.067,19.807,20.056,19.821,20.045,19.833Zm.576-.645a13.915,13.915,0,0,0-3.039-1.21,20.783,20.783,0,0,0,.809-5.541h4.8A11.189,11.189,0,0,1,20.62,19.188Z" transform="translate(0 -0.022)" fill="#05507a" stroke="#0d5178" stroke-width="0.4"/></g></g></svg>