<svg xmlns="http://www.w3.org/2000/svg" width="67.362" height="108.14" viewBox="0 0 67.362 108.14"><g transform="translate(-1328.164 -609.141)"><g transform="translate(1328.164 609.141)"><path d="M1391.267,758.013h-27c-1.244,0-2.253,1.514-2.253,3.38s1.007,3.379,2.253,3.379h27c1.244,0,2.253-1.514,2.253-3.379S1392.511,758.013,1391.267,758.013Z" transform="translate(-1344.083 -679.161)" fill="#c5283d"/><path d="M1391.267,779.28h-27c-1.244,0-2.253,1.514-2.253,3.38s1.007,3.379,2.253,3.379h27c1.244,0,2.253-1.514,2.253-3.379S1392.511,779.28,1391.267,779.28Z" transform="translate(-1344.083 -689.164)" fill="#c5283d"/><path d="M1390.508,800.548h-13.518c-1.244,0-2.253,1.514-2.253,3.379s1.007,3.379,2.253,3.379h13.518c1.244,0,2.253-1.514,2.253-3.379S1391.745,800.548,1390.508,800.548Z" transform="translate(-1350.069 -699.167)" fill="#c5283d"/><path d="M1392.972,631.926a35.411,35.411,0,0,0-7.434-12.283,32.4,32.4,0,0,0-17.447-9.888,32.078,32.078,0,0,0-12.49,0,32.452,32.452,0,0,0-17.447,9.886,35.433,35.433,0,0,0-7.434,12.283,32.8,32.8,0,0,0-2.46,14.815,34.189,34.189,0,0,0,4.957,14.81c.676,1.115,2.028,3.247,4.742,7.072.676.967,1.269,1.757,1.776,2.444a24.013,24.013,0,0,1,2.674,4.145,27.034,27.034,0,0,1,2.143,6.387,2.253,2.253,0,0,0,2.206,1.8h30.182a2.253,2.253,0,0,0,2.212-1.843,23.39,23.39,0,0,1,2.115-6.308,29.062,29.062,0,0,1,2.82-4.343c.476-.651,1.016-1.395,1.661-2.3,1.868-2.631,3.483-4.9,4.731-7.067a34.329,34.329,0,0,0,4.957-14.8A32.977,32.977,0,0,0,1392.972,631.926Z" transform="translate(-1328.164 -609.141)" fill="#F6AE2E"/></g><path d="M1363.9,609.141a32.085,32.085,0,0,0-6.244.614,32.452,32.452,0,0,0-17.447,9.886,35.433,35.433,0,0,0-7.434,12.283,32.788,32.788,0,0,0-2.46,14.815,34.189,34.189,0,0,0,4.957,14.81c.676,1.115,2.027,3.247,4.742,7.072.676.967,1.268,1.757,1.775,2.444a23.983,23.983,0,0,1,2.674,4.145,27.04,27.04,0,0,1,2.143,6.387,2.252,2.252,0,0,0,2.206,1.8H1363.9Z" transform="translate(-0.966)" fill="#c5283d"/></g></svg>