<svg xmlns="http://www.w3.org/2000/svg" width="133" height="93.754" viewBox="0 0 133 93.754"><g transform="translate(-675.675 -630.997)"><path d="M804.3,726.872c0-18.212-15.519-34.647-34.647-34.647s-34.63,16.435-34.63,34.647H749.5l3.408,14.788H785.1L790,726.872Z" transform="translate(-27.437 -28.304)" fill="#032538"/><circle cx="16.673" cy="16.673" r="16.673" transform="translate(726.318 630.997)" fill="#032538"/><path d="M794.146,775.542a34.647,34.647,0,0,1,69.294,0Z" transform="translate(-54.765 -50.81)" fill="#05507a"/><circle cx="16.673" cy="16.673" r="16.673" transform="translate(757.337 657.106)" fill="#05507a"/><path d="M675.675,775.563a34.647,34.647,0,0,1,69.294,0Z" transform="translate(0 -50.812)" fill="#0f5b77"/><circle cx="16.673" cy="16.673" r="16.673" transform="translate(693.649 657.106)" fill="#0f5b77"/></g></svg>