<svg xmlns="http://www.w3.org/2000/svg" width="112.5" height="112.5" viewBox="0 0 112.5 112.5"><g transform="translate(-380.019 -596.262)"><circle cx="56.25" cy="56.25" r="56.25" transform="translate(380.019 596.262)" fill="#05507a"/><rect width="28.696" height="13.383" rx="6.691" transform="translate(450.146 639.49)" fill="#032538"/><path d="M443.269,633.947H394.606c-5.36,6.337-14.476,19.865-14.387,38.479h43.086a7.039,7.039,0,0,0,7.039-7.039h0a7.039,7.039,0,0,0-7.039-7.039h-7.445c2.433-3.29,1.372-7.685,1.372-7.685l-.744-2.639h26.779a7.039,7.039,0,0,0,7.039-7.039h0A7.039,7.039,0,0,0,443.269,633.947Z" transform="translate(-0.1 -18.921)" fill="#032538"/><path d="M522.414,749.781a7.766,7.766,0,0,0-4.75-1.62h-62.49a7.811,7.811,0,0,0-7.811,7.811h0a7.811,7.811,0,0,0,7.811,7.811h29.042s-2.931,12.079,10.952,12.449h5.163C505.664,772.8,516.607,764.336,522.414,749.781Z" transform="translate(-33.811 -76.265)" fill="#032538"/></g></svg>