<svg xmlns="http://www.w3.org/2000/svg" width="105.106" height="117.72" viewBox="0 0 105.106 117.72"><g transform="translate(-390.533 -253.704)"><path d="M494.211,270.18a3.848,3.848,0,0,0-2.78-3.177l-47.314-13.158a3.845,3.845,0,0,0-2.062,0L394.741,267a3.847,3.847,0,0,0-2.78,3.177c-.274,1.973-6.535,48.6,9.523,71.792,16.039,23.167,39.7,29.1,40.7,29.345a3.859,3.859,0,0,0,1.807,0c1-.242,24.66-6.178,40.7-29.345C500.746,318.778,494.486,272.154,494.211,270.18Z" fill="#F6AE2E"/><g transform="translate(416.76 268.476)"><path d="M488.049,349.675q-5.155,4.727-13.588,5.92V368.2h-11.33V355.51a48.176,48.176,0,0,1-11.628-3.322,39,39,0,0,1-9.839-5.964l6.049-12.182A37.6,37.6,0,0,0,458.4,340.6a29.182,29.182,0,0,0,10.947,2.556,10.154,10.154,0,0,0,5.5-1.278,4.17,4.17,0,0,0,2-3.749,4.429,4.429,0,0,0-1.491-3.408,10.988,10.988,0,0,0-3.748-2.172q-2.259-.809-6.347-1.917a78.177,78.177,0,0,1-10.138-3.45,17.918,17.918,0,0,1-6.858-5.282q-2.855-3.534-2.854-9.414a16.116,16.116,0,0,1,4.728-11.884q4.728-4.728,12.991-6.006V282.5h11.33v11.926a47.855,47.855,0,0,1,9.968,2.258,39.69,39.69,0,0,1,8.689,4.131l-5.878,12.438a52.385,52.385,0,0,0-10.18-4.6,29.986,29.986,0,0,0-9.073-1.789,8.392,8.392,0,0,0-4.557,1.065,3.466,3.466,0,0,0-1.661,3.109,4.254,4.254,0,0,0,1.448,3.28,11.069,11.069,0,0,0,3.578,2.13q2.128.81,6.3,2.087a82.106,82.106,0,0,1,10.265,3.578,17.964,17.964,0,0,1,6.943,5.495,15.257,15.257,0,0,1,2.9,9.669A16.032,16.032,0,0,1,488.049,349.675Z" transform="translate(-441.663 -282.502)" fill="#c5283d"/></g></g></svg>