<svg xmlns="http://www.w3.org/2000/svg" width="117.607" height="117.718" viewBox="0 0 117.607 117.718"><g transform="translate(-986.306 -254.079)"><path d="M1043.625,394.3s39.865,7.854,65.217-17.5,17.5-65.217,17.5-65.217-39.865-7.854-65.217,17.5S1043.625,394.3,1043.625,394.3Z" transform="translate(-23.577 -23.657)" fill="#05507a"/><path d="M1044.456,395.136s39.865,7.854,65.217-17.5,17.5-65.217,17.5-65.217Z" transform="translate(-24.408 -24.489)" fill="#0f5b77"/><path d="M1020.048,371.057s33.742-22.635,33.742-58.489-33.742-58.489-33.742-58.489-33.742,22.635-33.742,58.489S1020.048,371.057,1020.048,371.057Z" transform="translate(0 0)" fill="#05507a"/><path d="M1044.456,371.057s33.742-22.635,33.742-58.489-33.742-58.489-33.742-58.489Z" transform="translate(-24.408 0)" fill="#032538"/></g></svg>