<svg xmlns="http://www.w3.org/2000/svg" width="88.283" height="107.621" viewBox="0 0 88.283 107.621"><g transform="translate(-1032.114 -630.742)"><path d="M1131.054,685.462l7.94-19.849a3.153,3.153,0,0,0-2.928-4.324h-39.937a3.153,3.153,0,0,0-3.153,3.153v28.377h-7.357a3.153,3.153,0,0,0-3.153,3.153v10.51a3.153,3.153,0,0,0,3.153,3.153h50.447a3.153,3.153,0,0,0,2.928-4.324Z" transform="translate(-18.822 -11.419)" fill="#032538"/><path d="M1085.618,728.457a3.152,3.152,0,0,1-3.152-3.153v-10.51a3.153,3.153,0,0,1,3.153-3.153h10.51a3.153,3.153,0,0,1,2.229,5.383l-10.51,10.51A3.152,3.152,0,0,1,1085.618,728.457Z" transform="translate(-18.822 -30.241)" fill="#0f5b77"/><path d="M1077.307,644.505h-42.04a3.153,3.153,0,0,0-3.153,3.153V689.7a3.153,3.153,0,0,0,3.153,3.153h42.04a3.153,3.153,0,0,0,3.153-3.153v-42.04A3.153,3.153,0,0,0,1077.307,644.505Z" transform="translate(0 -5.145)" fill="#05507a"/><path d="M1035.267,738.363a3.153,3.153,0,0,1-3.153-3.153V633.895a3.153,3.153,0,0,1,6.306,0V735.211A3.153,3.153,0,0,1,1035.267,738.363Z" fill="#0f5b77"/></g></svg>