<svg xmlns="http://www.w3.org/2000/svg" width="296.137" height="474.785" viewBox="0 0 296.137 474.785"><g transform="translate(-730.519 -265.348)"><path d="M730.519,265.348h296.136V695.629l-145.308,44.5-150.828-44.5Z" transform="translate(0 0)" fill="#05507a"/><g transform="translate(785.216 305.375)"><g transform="translate(0 0)"><path d="M942.687,351.792l-64.519-9.375-28.853-58.464-28.853,58.464-64.519,9.375L802.629,397.3l-11.022,64.258,57.707-30.339,57.707,30.339L896,397.3Z" transform="translate(-755.943 -283.953)" fill="#022638"/></g></g><g transform="translate(774.264 477.135)"><g transform="translate(0 0)"><path d="M855.176,405.643,750.852,363.789v59.449l104.932,42.1L959.5,423.206V363.789Z" transform="translate(-750.852 -363.789)" fill="#022638"/></g></g><g transform="translate(774.264 550.794)"><g transform="translate(0 0)"><path d="M855.176,439.88,750.852,398.026v59.449l104.932,42.1L959.5,457.443V398.026Z" transform="translate(-750.852 -398.026)" fill="#022638"/></g></g></g></svg>